<svg xmlns="http://www.w3.org/2000/svg" xmlns:xlink="http://www.w3.org/1999/xlink" width="100" zoomAndPan="magnify" viewBox="7.488281 7.488281 60.023438 60.023438" height="100" preserveAspectRatio="xMidYMid meet" version="1.0"><defs><clipPath id="97d6a146f2"><path d="M 9.488281 9.488281 L 65.511719 9.488281 L 65.511719 65.511719 L 9.488281 65.511719 Z M 9.488281 9.488281 " clip-rule="nonzero"/></clipPath><clipPath id="097ef1a2c5"><path d="M 37.5 9.488281 C 22.027344 9.488281 9.488281 22.027344 9.488281 37.5 C 9.488281 52.972656 22.027344 65.511719 37.5 65.511719 C 52.972656 65.511719 65.511719 52.972656 65.511719 37.5 C 65.511719 22.027344 52.972656 9.488281 37.5 9.488281 Z M 37.5 9.488281 " clip-rule="nonzero"/></clipPath><clipPath id="47a80b091a"><path d="M 0.488281 0.488281 L 56.511719 0.488281 L 56.511719 56.511719 L 0.488281 56.511719 Z M 0.488281 0.488281 " clip-rule="nonzero"/></clipPath><clipPath id="f0210ba23b"><path d="M 28.5 0.488281 C 13.027344 0.488281 0.488281 13.027344 0.488281 28.5 C 0.488281 43.972656 13.027344 56.511719 28.5 56.511719 C 43.972656 56.511719 56.511719 43.972656 56.511719 28.5 C 56.511719 13.027344 43.972656 0.488281 28.5 0.488281 Z M 28.5 0.488281 " clip-rule="nonzero"/></clipPath><clipPath id="00c51ce739"><rect x="0" width="57" y="0" height="57"/></clipPath><clipPath id="bcda9fb921"><path d="M 0.320312 0 L 30.558594 0 L 30.558594 30.136719 L 0.320312 30.136719 Z M 0.320312 0 " clip-rule="nonzero"/></clipPath><clipPath id="d9b424a2b3"><path d="M 0.386719 30.023438 L 24.90625 30.023438 L 24.90625 42.261719 L 0.386719 42.261719 Z M 0.386719 30.023438 " clip-rule="nonzero"/></clipPath><clipPath id="d878d43bf8"><path d="M 0.386719 30.023438 C 0.386719 36.691406 5.957031 42.261719 12.621094 42.261719 C 19.285156 42.261719 24.855469 36.691406 24.855469 30.023438 L 18.0625 30.023438 C 18.0625 32.988281 15.585938 35.46875 12.621094 35.46875 C 9.65625 35.46875 7.179688 32.988281 7.179688 30.023438 Z M 0.386719 30.023438 " clip-rule="nonzero"/></clipPath><clipPath id="a4ce87a997"><path d="M 0.386719 0.0234375 L 24.90625 0.0234375 L 24.90625 12.261719 L 0.386719 12.261719 Z M 0.386719 0.0234375 " clip-rule="nonzero"/></clipPath><clipPath id="94afc74936"><path d="M 0.386719 0.0234375 C 0.386719 6.691406 5.957031 12.261719 12.621094 12.261719 C 19.285156 12.261719 24.855469 6.691406 24.855469 0.0234375 L 18.0625 0.0234375 C 18.0625 2.988281 15.585938 5.46875 12.621094 5.46875 C 9.65625 5.46875 7.179688 2.988281 7.179688 0.0234375 Z M 0.386719 0.0234375 " clip-rule="nonzero"/></clipPath><clipPath id="826d806673"><rect x="0" width="25" y="0" height="13"/></clipPath><clipPath id="1a80951280"><rect x="0" width="31" y="0" height="43"/></clipPath></defs><g clip-path="url(#97d6a146f2)"><g clip-path="url(#097ef1a2c5)"><g transform="matrix(1, 0, 0, 1, 9, 9)"><g clip-path="url(#00c51ce739)"><g clip-path="url(#47a80b091a)"><g clip-path="url(#f0210ba23b)"><path fill="#0097b2" d="M 0.488281 0.488281 L 56.511719 0.488281 L 56.511719 56.511719 L 0.488281 56.511719 Z M 0.488281 0.488281 " fill-opacity="1" fill-rule="nonzero"/></g></g></g></g></g></g><g transform="matrix(1, 0, 0, 1, 22, 18)"><g clip-path="url(#1a80951280)"><g clip-path="url(#bcda9fb921)"><path fill="#ffffff" d="M 0.625 17.25 C 0.625 10.488281 6.105469 5.011719 12.863281 5.011719 C 19.625 5.011719 25.105469 10.488281 25.105469 17.25 C 25.105469 24.011719 19.625 29.492188 12.863281 29.492188 C 6.105469 29.492188 0.625 24.011719 0.625 17.25 Z M 12.863281 22.351562 C 15.679688 22.351562 17.964844 20.066406 17.964844 17.25 C 17.964844 14.433594 15.679688 12.148438 12.863281 12.148438 C 10.046875 12.148438 7.765625 14.433594 7.765625 17.25 C 7.765625 20.066406 10.046875 22.351562 12.863281 22.351562 Z M 0.625 41.222656 L 0.625 33.0625 L 25.105469 33.0625 L 25.105469 41.222656 Z M 22.199219 4.09375 C 22.199219 1.839844 24.023438 0.0117188 26.277344 0.0117188 C 28.53125 0.0117188 30.359375 1.839844 30.359375 4.09375 C 30.359375 6.34375 28.53125 8.171875 26.277344 8.171875 C 24.023438 8.171875 22.199219 6.34375 22.199219 4.09375 Z M 22.199219 4.09375 " fill-opacity="1" fill-rule="evenodd"/></g><g clip-path="url(#d9b424a2b3)"><g clip-path="url(#d878d43bf8)"><g transform="matrix(1, 0, 0, 1, 0, 30)"><g clip-path="url(#826d806673)"><g clip-path="url(#a4ce87a997)"><g clip-path="url(#94afc74936)"><path fill="#cb3421" d="M 24.855469 12.261719 L 0.386719 12.261719 L 0.386719 0.0234375 L 24.855469 0.0234375 Z M 24.855469 12.261719 " fill-opacity="1" fill-rule="nonzero"/></g></g></g></g></g></g></g></g></svg>