<svg xmlns="http://www.w3.org/2000/svg" xmlns:xlink="http://www.w3.org/1999/xlink" width="400" zoomAndPan="magnify" viewBox="0 0 300 225" height="300" preserveAspectRatio="xMidYMid meet" version="1.0"><defs><clipPath id="d5af11fe79"><path d="M 0.800781 0.558594 L 31 0.558594 L 31 30.800781 L 0.800781 30.800781 Z M 0.800781 0.558594 " clip-rule="nonzero"/></clipPath><clipPath id="bf8ff97936"><rect x="0" width="32" y="0" height="31"/></clipPath><clipPath id="364a386948"><path d="M 279.917969 88.617188 L 287.324219 88.617188 L 287.324219 107.65625 L 279.917969 107.65625 Z M 279.917969 88.617188 " clip-rule="nonzero"/></clipPath><clipPath id="14041b0dba"><path d="M 0.917969 0.617188 L 8.324219 0.617188 L 8.324219 19.65625 L 0.917969 19.65625 Z M 0.917969 0.617188 " clip-rule="nonzero"/></clipPath><clipPath id="fb8db84249"><rect x="0" width="9" y="0" height="20"/></clipPath><clipPath id="2a3b70b66a"><path d="M 210.910156 109.558594 L 219.710938 109.558594 L 219.710938 124.65625 L 210.910156 124.65625 Z M 210.910156 109.558594 " clip-rule="nonzero"/></clipPath><clipPath id="672342c78d"><path d="M 0.910156 0.558594 L 9.710938 0.558594 L 9.710938 15.65625 L 0.910156 15.65625 Z M 0.910156 0.558594 " clip-rule="nonzero"/></clipPath><clipPath id="568a216cd6"><rect x="0" width="10" y="0" height="16"/></clipPath><clipPath id="cc000344a4"><path d="M 79.582031 109.558594 L 88.382812 109.558594 L 88.382812 124.65625 L 79.582031 124.65625 Z M 79.582031 109.558594 " clip-rule="nonzero"/></clipPath><clipPath id="b8eda1a87a"><path d="M 0.582031 0.558594 L 9.382812 0.558594 L 9.382812 15.65625 L 0.582031 15.65625 Z M 0.582031 0.558594 " clip-rule="nonzero"/></clipPath><clipPath id="7ddfe1c089"><rect x="0" width="10" y="0" height="16"/></clipPath><clipPath id="d7646a0816"><path d="M 107 88 L 143.507812 88 L 143.507812 125.855469 L 107 125.855469 Z M 107 88 " clip-rule="nonzero"/></clipPath><clipPath id="7a5e283cb5"><path d="M 107.496094 125.398438 L 137.527344 125.398438 L 137.527344 140.382812 L 107.496094 140.382812 Z M 107.496094 125.398438 " clip-rule="nonzero"/></clipPath><clipPath id="42b908e243"><path d="M 107.496094 125.398438 C 107.496094 133.5625 114.320312 140.382812 122.480469 140.382812 C 130.644531 140.382812 137.46875 133.5625 137.46875 125.398438 L 129.148438 125.398438 C 129.148438 129.027344 126.113281 132.0625 122.480469 132.0625 C 118.851562 132.0625 115.816406 129.027344 115.816406 125.398438 Z M 107.496094 125.398438 " clip-rule="nonzero"/></clipPath><clipPath id="8ee0904f92"><path d="M 0.496094 0.398438 L 30.519531 0.398438 L 30.519531 15.382812 L 0.496094 15.382812 Z M 0.496094 0.398438 " clip-rule="nonzero"/></clipPath><clipPath id="79f9737804"><path d="M 0.496094 0.398438 C 0.496094 8.5625 7.320312 15.382812 15.480469 15.382812 C 23.644531 15.382812 30.46875 8.5625 30.46875 0.398438 L 22.148438 0.398438 C 22.148438 4.027344 19.113281 7.0625 15.480469 7.0625 C 11.851562 7.0625 8.816406 4.027344 8.816406 0.398438 Z M 0.496094 0.398438 " clip-rule="nonzero"/></clipPath><clipPath id="4d82e2dc50"><rect x="0" width="31" y="0" height="16"/></clipPath><clipPath id="e136e1cfdd"><path d="M 176 88 L 211.773438 88 L 211.773438 125.855469 L 176 125.855469 Z M 176 88 " clip-rule="nonzero"/></clipPath><clipPath id="6a009b5d29"><path d="M 175.761719 125.398438 L 205.792969 125.398438 L 205.792969 140.382812 L 175.761719 140.382812 Z M 175.761719 125.398438 " clip-rule="nonzero"/></clipPath><clipPath id="ded090c36e"><path d="M 175.761719 125.398438 C 175.761719 133.5625 182.585938 140.382812 190.75 140.382812 C 198.910156 140.382812 205.734375 133.5625 205.734375 125.398438 L 197.414062 125.398438 C 197.414062 129.027344 194.378906 132.0625 190.75 132.0625 C 187.117188 132.0625 184.082031 129.027344 184.082031 125.398438 Z M 175.761719 125.398438 " clip-rule="nonzero"/></clipPath><clipPath id="7c495d0a1d"><path d="M 0.761719 0.398438 L 30.792969 0.398438 L 30.792969 15.382812 L 0.761719 15.382812 Z M 0.761719 0.398438 " clip-rule="nonzero"/></clipPath><clipPath id="7163944b65"><path d="M 0.761719 0.398438 C 0.761719 8.5625 7.585938 15.382812 15.75 15.382812 C 23.910156 15.382812 30.734375 8.5625 30.734375 0.398438 L 22.414062 0.398438 C 22.414062 4.027344 19.378906 7.0625 15.75 7.0625 C 12.117188 7.0625 9.082031 4.027344 9.082031 0.398438 Z M 0.761719 0.398438 " clip-rule="nonzero"/></clipPath><clipPath id="b6b5008614"><rect x="0" width="31" y="0" height="16"/></clipPath></defs><path fill="#0097b2" d="M 13.378906 109.652344 C 13.378906 101.371094 20.09375 94.65625 28.375 94.65625 C 35.363281 94.65625 41.234375 99.4375 42.902344 105.90625 L 33.375 105.90625 C 32.234375 104.386719 30.421875 103.40625 28.375 103.40625 C 24.925781 103.40625 22.128906 106.203125 22.128906 109.652344 C 22.128906 113.105469 24.925781 115.902344 28.375 115.902344 C 30.421875 115.902344 32.234375 114.921875 33.375 113.402344 L 42.902344 113.402344 C 41.234375 119.871094 35.363281 124.652344 28.375 124.652344 C 20.09375 124.652344 13.378906 117.9375 13.378906 109.652344 Z M 13.378906 109.652344 " fill-opacity="1" fill-rule="evenodd"/><path fill="#0097b2" d="M 46.210938 109.652344 C 46.210938 101.371094 52.925781 94.65625 61.207031 94.65625 C 69.492188 94.65625 76.203125 101.371094 76.203125 109.652344 L 76.203125 124.652344 L 68.707031 124.652344 L 68.707031 122.644531 C 66.5 123.921875 63.941406 124.652344 61.207031 124.652344 C 52.925781 124.652344 46.210938 117.9375 46.210938 109.652344 Z M 61.207031 115.902344 C 64.660156 115.902344 67.457031 113.105469 67.457031 109.652344 C 67.457031 106.203125 64.660156 103.40625 61.207031 103.40625 C 57.757812 103.40625 54.960938 106.203125 54.960938 109.652344 C 54.960938 113.105469 57.757812 115.902344 61.207031 115.902344 Z M 61.207031 115.902344 " fill-opacity="1" fill-rule="evenodd"/><path fill="#0097b2" d="M 141.476562 109.652344 C 141.476562 101.371094 148.191406 94.65625 156.472656 94.65625 C 164.753906 94.65625 171.46875 101.371094 171.46875 109.652344 C 171.46875 117.9375 164.753906 124.652344 156.472656 124.652344 C 148.191406 124.652344 141.476562 117.9375 141.476562 109.652344 Z M 156.472656 118.402344 C 161.304688 118.402344 165.21875 114.484375 165.21875 109.652344 C 165.21875 104.824219 161.304688 100.90625 156.472656 100.90625 C 151.640625 100.90625 147.722656 104.824219 147.722656 109.652344 C 147.722656 114.484375 151.640625 118.402344 156.472656 118.402344 Z M 156.472656 118.402344 " fill-opacity="1" fill-rule="evenodd"/><path fill="#0097b2" d="M 151.472656 109.652344 C 151.472656 106.894531 153.710938 104.65625 156.472656 104.65625 C 159.234375 104.65625 161.472656 106.894531 161.472656 109.652344 C 161.472656 112.414062 159.234375 114.652344 156.472656 114.652344 C 153.710938 114.652344 151.472656 112.414062 151.472656 109.652344 Z M 151.472656 109.652344 " fill-opacity="1" fill-rule="evenodd"/><path fill="#0097b2" d="M 246.96875 94.65625 C 249.730469 94.65625 251.96875 96.894531 251.96875 99.65625 L 251.96875 124.65625 L 241.96875 124.65625 L 241.96875 99.65625 C 241.96875 96.894531 244.207031 94.65625 246.96875 94.65625 Z M 246.96875 103.746094 C 249.039062 103.746094 250.71875 102.066406 250.71875 99.996094 C 250.71875 97.921875 249.039062 96.246094 246.96875 96.246094 C 244.898438 96.246094 243.21875 97.921875 243.21875 99.996094 C 243.21875 102.066406 244.898438 103.746094 246.96875 103.746094 Z M 246.96875 103.746094 " fill-opacity="1" fill-rule="evenodd"/><path fill="#0097b2" d="M 244.46875 99.996094 C 244.46875 98.613281 245.589844 97.496094 246.96875 97.496094 C 248.351562 97.496094 249.46875 98.613281 249.46875 99.996094 C 249.46875 101.375 248.351562 102.496094 246.96875 102.496094 C 245.589844 102.496094 244.46875 101.375 244.46875 99.996094 Z M 244.46875 99.996094 " fill-opacity="1" fill-rule="evenodd"/><g transform="matrix(1, 0, 0, 1, 256, 94)"><g clip-path="url(#bf8ff97936)"><g clip-path="url(#d5af11fe79)"><path fill="#0097b2" d="M 0.855469 15.652344 C 0.855469 23.9375 7.570312 30.652344 15.851562 30.652344 C 24.136719 30.652344 30.847656 23.9375 30.847656 15.652344 L 30.847656 0.65625 L 23.351562 0.65625 L 23.351562 2.664062 C 21.144531 1.386719 18.582031 0.65625 15.851562 0.65625 C 7.570312 0.65625 0.855469 7.371094 0.855469 15.652344 Z M 15.851562 9.40625 C 19.304688 9.40625 22.101562 12.203125 22.101562 15.652344 C 22.101562 19.105469 19.304688 21.902344 15.851562 21.902344 C 12.402344 21.902344 9.605469 19.105469 9.605469 15.652344 C 9.605469 12.203125 12.402344 9.40625 15.851562 9.40625 Z M 15.851562 9.40625 " fill-opacity="1" fill-rule="evenodd"/></g></g></g><g clip-path="url(#364a386948)"><g transform="matrix(1, 0, 0, 1, 279, 88)"><g clip-path="url(#fb8db84249)"><g clip-path="url(#14041b0dba)"><path fill="#0097b2" d="M 0.917969 0.617188 L 8.324219 0.617188 L 8.324219 19.65625 L 0.917969 19.65625 Z M 0.917969 0.617188 " fill-opacity="1" fill-rule="nonzero"/></g></g></g></g><path fill="#0097b2" d="M 225.984375 94.65625 C 230.871094 94.65625 235.210938 96.992188 237.949219 100.609375 L 230.230469 105.066406 C 229.113281 104.035156 227.621094 103.402344 225.984375 103.402344 C 222.53125 103.402344 219.734375 106.199219 219.734375 109.652344 L 210.988281 109.652344 C 210.988281 101.371094 217.703125 94.65625 225.984375 94.65625 Z M 225.984375 94.65625 " fill-opacity="1" fill-rule="evenodd"/><g clip-path="url(#2a3b70b66a)"><g transform="matrix(1, 0, 0, 1, 210, 109)"><g clip-path="url(#568a216cd6)"><g clip-path="url(#672342c78d)"><path fill="#0097b2" d="M 0.910156 0.558594 L 9.710938 0.558594 L 9.710938 15.648438 L 0.910156 15.648438 Z M 0.910156 0.558594 " fill-opacity="1" fill-rule="nonzero"/></g></g></g></g><path fill="#0097b2" d="M 94.65625 94.65625 C 99.542969 94.65625 103.882812 96.992188 106.617188 100.609375 L 98.898438 105.066406 C 97.785156 104.035156 96.292969 103.402344 94.65625 103.402344 C 91.203125 103.402344 88.40625 106.199219 88.40625 109.652344 L 79.660156 109.652344 C 79.660156 101.371094 86.375 94.65625 94.65625 94.65625 Z M 94.65625 94.65625 " fill-opacity="1" fill-rule="evenodd"/><g clip-path="url(#cc000344a4)"><g transform="matrix(1, 0, 0, 1, 79, 109)"><g clip-path="url(#7ddfe1c089)"><g clip-path="url(#b8eda1a87a)"><path fill="#0097b2" d="M 0.582031 0.558594 L 9.382812 0.558594 L 9.382812 15.648438 L 0.582031 15.648438 Z M 0.582031 0.558594 " fill-opacity="1" fill-rule="nonzero"/></g></g></g></g><g clip-path="url(#d7646a0816)"><path fill="#0097b2" d="M 107.789062 109.726562 C 107.789062 101.445312 114.503906 94.730469 122.785156 94.730469 C 131.070312 94.730469 137.785156 101.445312 137.785156 109.726562 C 137.785156 118.011719 131.070312 124.726562 122.785156 124.726562 C 114.503906 124.726562 107.789062 118.011719 107.789062 109.726562 Z M 122.785156 115.976562 C 126.238281 115.976562 129.035156 113.179688 129.035156 109.726562 C 129.035156 106.277344 126.238281 103.480469 122.785156 103.480469 C 119.335938 103.480469 116.535156 106.277344 116.535156 109.726562 C 116.535156 113.179688 119.335938 115.976562 122.785156 115.976562 Z M 107.789062 139.101562 L 107.789062 129.101562 L 137.785156 129.101562 L 137.785156 139.101562 Z M 134.222656 93.605469 C 134.222656 90.84375 136.460938 88.605469 139.222656 88.605469 C 141.984375 88.605469 144.222656 90.84375 144.222656 93.605469 C 144.222656 96.367188 141.984375 98.605469 139.222656 98.605469 C 136.460938 98.605469 134.222656 96.367188 134.222656 93.605469 Z M 134.222656 93.605469 " fill-opacity="1" fill-rule="evenodd"/></g><g clip-path="url(#7a5e283cb5)"><g clip-path="url(#42b908e243)"><g transform="matrix(1, 0, 0, 1, 107, 125)"><g clip-path="url(#4d82e2dc50)"><g clip-path="url(#8ee0904f92)"><g clip-path="url(#79f9737804)"><path fill="#cb3421" d="M 30.46875 15.382812 L 0.496094 15.382812 L 0.496094 0.398438 L 30.46875 0.398438 Z M 30.46875 15.382812 " fill-opacity="1" fill-rule="nonzero"/></g></g></g></g></g></g><g clip-path="url(#e136e1cfdd)"><path fill="#0097b2" d="M 176.054688 109.726562 C 176.054688 101.445312 182.769531 94.730469 191.050781 94.730469 C 199.335938 94.730469 206.050781 101.445312 206.050781 109.726562 C 206.050781 118.011719 199.335938 124.726562 191.050781 124.726562 C 182.769531 124.726562 176.054688 118.011719 176.054688 109.726562 Z M 191.050781 115.976562 C 194.503906 115.976562 197.300781 113.179688 197.300781 109.726562 C 197.300781 106.277344 194.503906 103.480469 191.050781 103.480469 C 187.601562 103.480469 184.804688 106.277344 184.804688 109.726562 C 184.804688 113.179688 187.601562 115.976562 191.050781 115.976562 Z M 176.054688 139.101562 L 176.054688 129.101562 L 206.050781 129.101562 L 206.050781 139.101562 Z M 202.488281 93.605469 C 202.488281 90.84375 204.726562 88.605469 207.488281 88.605469 C 210.25 88.605469 212.488281 90.84375 212.488281 93.605469 C 212.488281 96.367188 210.25 98.605469 207.488281 98.605469 C 204.726562 98.605469 202.488281 96.367188 202.488281 93.605469 Z M 202.488281 93.605469 " fill-opacity="1" fill-rule="evenodd"/></g><g clip-path="url(#6a009b5d29)"><g clip-path="url(#ded090c36e)"><g transform="matrix(1, 0, 0, 1, 175, 125)"><g clip-path="url(#b6b5008614)"><g clip-path="url(#7c495d0a1d)"><g clip-path="url(#7163944b65)"><path fill="#cb3421" d="M 30.734375 15.382812 L 0.761719 15.382812 L 0.761719 0.398438 L 30.734375 0.398438 Z M 30.734375 15.382812 " fill-opacity="1" fill-rule="nonzero"/></g></g></g></g></g></g></svg>