<svg xmlns="http://www.w3.org/2000/svg" xmlns:xlink="http://www.w3.org/1999/xlink" width="400" zoomAndPan="magnify" viewBox="0 0 300 225" height="300" preserveAspectRatio="xMidYMid meet" version="1.0"><defs><clipPath id="0890ebb0cd"><path d="M 0.199219 10 L 50 10 L 50 61 L 0.199219 61 Z M 0.199219 10 " clip-rule="nonzero"/></clipPath><clipPath id="41a00a283c"><path d="M 212 10 L 261.800781 10 L 261.800781 61 L 212 61 Z M 212 10 " clip-rule="nonzero"/></clipPath><clipPath id="0c72ea68a3"><path d="M 110 35.351562 L 124.519531 35.351562 L 124.519531 60.265625 L 110 60.265625 Z M 110 35.351562 " clip-rule="nonzero"/></clipPath><clipPath id="23df0f84e0"><path d="M 0 0.351562 L 14.519531 0.351562 L 14.519531 25.265625 L 0 25.265625 Z M 0 0.351562 " clip-rule="nonzero"/></clipPath><clipPath id="817ddcb9fe"><rect x="0" width="15" y="0" height="26"/></clipPath><clipPath id="136487cd58"><path d="M 156 0.640625 L 215.480469 0.640625 L 215.480469 62.246094 L 156 62.246094 Z M 156 0.640625 " clip-rule="nonzero"/></clipPath><clipPath id="8fb078a2de"><path d="M 156.058594 61.488281 L 205.613281 61.488281 L 205.613281 86.21875 L 156.058594 86.21875 Z M 156.058594 61.488281 " clip-rule="nonzero"/></clipPath><clipPath id="96cc0baf55"><path d="M 156.058594 61.488281 C 156.058594 74.957031 167.320312 86.21875 180.789062 86.21875 C 194.257812 86.21875 205.519531 74.957031 205.519531 61.488281 L 191.785156 61.488281 C 191.785156 67.480469 186.777344 72.488281 180.789062 72.488281 C 174.796875 72.488281 169.789062 67.480469 169.789062 61.488281 Z M 156.058594 61.488281 " clip-rule="nonzero"/></clipPath><clipPath id="d796200e1a"><path d="M 0.0585938 0.488281 L 49.613281 0.488281 L 49.613281 25.21875 L 0.0585938 25.21875 Z M 0.0585938 0.488281 " clip-rule="nonzero"/></clipPath><clipPath id="9f75a1d328"><path d="M 0.0585938 0.488281 C 0.0585938 13.957031 11.320312 25.21875 24.789062 25.21875 C 38.257812 25.21875 49.519531 13.957031 49.519531 0.488281 L 35.785156 0.488281 C 35.785156 6.480469 30.777344 11.488281 24.789062 11.488281 C 18.796875 11.488281 13.789062 6.480469 13.789062 0.488281 Z M 0.0585938 0.488281 " clip-rule="nonzero"/></clipPath><clipPath id="f4025289a8"><rect x="0" width="50" y="0" height="26"/></clipPath><clipPath id="de1094b1b9"><path d="M 0.28125 1 L 58.601562 1 L 58.601562 59.480469 L 0.28125 59.480469 Z M 0.28125 1 " clip-rule="nonzero"/></clipPath><clipPath id="1a68cca5d4"><rect x="0" width="59" y="0" height="60"/></clipPath><clipPath id="f34c666d8d"><path d="M 246.335938 78.433594 L 261.074219 78.433594 L 261.074219 115.351562 L 246.335938 115.351562 Z M 246.335938 78.433594 " clip-rule="nonzero"/></clipPath><clipPath id="5e080f1345"><path d="M 0.335938 0.433594 L 15.074219 0.433594 L 15.074219 37.351562 L 0.335938 37.351562 Z M 0.335938 0.433594 " clip-rule="nonzero"/></clipPath><clipPath id="bd368f87c0"><rect x="0" width="16" y="0" height="38"/></clipPath><clipPath id="e2018fad65"><path d="M 111.777344 115.351562 L 128.839844 115.351562 L 128.839844 148.3125 L 111.777344 148.3125 Z M 111.777344 115.351562 " clip-rule="nonzero"/></clipPath><clipPath id="b0a88afda8"><path d="M 0.777344 0.351562 L 17.839844 0.351562 L 17.839844 33.3125 L 0.777344 33.3125 Z M 0.777344 0.351562 " clip-rule="nonzero"/></clipPath><clipPath id="042278975b"><rect x="0" width="18" y="0" height="34"/></clipPath><clipPath id="38f8ea9984"><path d="M 44 78 L 115 78 L 115 151.050781 L 44 151.050781 Z M 44 78 " clip-rule="nonzero"/></clipPath><clipPath id="58b9b0f1e7"><path d="M 43.632812 149.753906 L 101.863281 149.753906 L 101.863281 178.8125 L 43.632812 178.8125 Z M 43.632812 149.753906 " clip-rule="nonzero"/></clipPath><clipPath id="2e5f9dacac"><path d="M 43.632812 149.753906 C 43.632812 165.582031 56.863281 178.8125 72.691406 178.8125 C 88.519531 178.8125 101.75 165.582031 101.75 149.753906 L 85.613281 149.753906 C 85.613281 156.792969 79.730469 162.675781 72.691406 162.675781 C 65.652344 162.675781 59.769531 156.792969 59.769531 149.753906 Z M 43.632812 149.753906 " clip-rule="nonzero"/></clipPath><clipPath id="13b940d6fb"><path d="M 0.632812 0.753906 L 58.863281 0.753906 L 58.863281 29.8125 L 0.632812 29.8125 Z M 0.632812 0.753906 " clip-rule="nonzero"/></clipPath><clipPath id="473a6beeb0"><path d="M 0.632812 0.753906 C 0.632812 16.582031 13.863281 29.8125 29.691406 29.8125 C 45.519531 29.8125 58.75 16.582031 58.75 0.753906 L 42.613281 0.753906 C 42.613281 7.792969 36.730469 13.675781 29.691406 13.675781 C 22.652344 13.675781 16.769531 7.792969 16.769531 0.753906 Z M 0.632812 0.753906 " clip-rule="nonzero"/></clipPath><clipPath id="11f5ba9337"><rect x="0" width="59" y="0" height="30"/></clipPath><clipPath id="4f60f437f6"><rect x="0" width="262" y="0" height="179"/></clipPath></defs><g transform="matrix(1, 0, 0, 1, 19, 26)"><g clip-path="url(#4f60f437f6)"><g clip-path="url(#0890ebb0cd)"><path fill="#0097b2" d="M 0.753906 35.507812 C 0.753906 21.839844 11.832031 10.761719 25.5 10.761719 C 37.03125 10.761719 46.71875 18.648438 49.46875 29.320312 L 33.75 29.320312 C 31.867188 26.816406 28.875 25.195312 25.5 25.195312 C 19.804688 25.195312 15.1875 29.8125 15.1875 35.507812 C 15.1875 41.203125 19.804688 45.820312 25.5 45.820312 C 28.875 45.820312 31.867188 44.199219 33.75 41.695312 L 49.46875 41.695312 C 46.71875 52.367188 37.03125 60.253906 25.5 60.253906 C 11.832031 60.253906 0.753906 49.175781 0.753906 35.507812 Z M 0.753906 35.507812 " fill-opacity="1" fill-rule="evenodd"/></g><path fill="#0097b2" d="M 54.929688 35.507812 C 54.929688 21.839844 66.011719 10.761719 79.675781 10.761719 C 93.34375 10.761719 104.425781 21.839844 104.425781 35.507812 L 104.425781 60.253906 L 92.050781 60.253906 L 92.050781 56.945312 C 88.410156 59.050781 84.183594 60.253906 79.675781 60.253906 C 66.011719 60.253906 54.929688 49.175781 54.929688 35.507812 Z M 79.675781 45.820312 C 85.371094 45.820312 89.988281 41.203125 89.988281 35.507812 C 89.988281 29.8125 85.371094 25.195312 79.675781 25.195312 C 73.984375 25.195312 69.367188 29.8125 69.367188 35.507812 C 69.367188 41.203125 73.984375 45.820312 79.675781 45.820312 Z M 79.675781 45.820312 " fill-opacity="1" fill-rule="evenodd"/><g clip-path="url(#41a00a283c)"><path fill="#0097b2" d="M 212.128906 35.507812 C 212.128906 21.839844 223.210938 10.761719 236.878906 10.761719 C 250.542969 10.761719 261.625 21.839844 261.625 35.507812 C 261.625 49.175781 250.542969 60.253906 236.878906 60.253906 C 223.210938 60.253906 212.128906 49.175781 212.128906 35.507812 Z M 236.878906 49.945312 C 244.851562 49.945312 251.3125 43.480469 251.3125 35.507812 C 251.3125 27.535156 244.851562 21.074219 236.878906 21.074219 C 228.90625 21.074219 222.441406 27.535156 222.441406 35.507812 C 222.441406 43.480469 228.90625 49.945312 236.878906 49.945312 Z M 236.878906 49.945312 " fill-opacity="1" fill-rule="evenodd"/></g><path fill="#0097b2" d="M 228.628906 35.507812 C 228.628906 30.953125 232.320312 27.257812 236.878906 27.257812 C 241.433594 27.257812 245.125 30.953125 245.125 35.507812 C 245.125 40.0625 241.433594 43.757812 236.878906 43.757812 C 232.320312 43.757812 228.628906 40.0625 228.628906 35.507812 Z M 228.628906 35.507812 " fill-opacity="1" fill-rule="evenodd"/><path fill="#0097b2" d="M 134.871094 10.761719 C 142.933594 10.761719 150.09375 14.617188 154.613281 20.585938 L 141.875 27.941406 C 140.035156 26.234375 137.574219 25.195312 134.871094 25.195312 C 129.175781 25.195312 124.558594 29.808594 124.558594 35.503906 L 110.125 35.503906 C 110.125 21.839844 121.203125 10.761719 134.871094 10.761719 Z M 134.871094 10.761719 " fill-opacity="1" fill-rule="evenodd"/><g clip-path="url(#0c72ea68a3)"><g transform="matrix(1, 0, 0, 1, 110, 35)"><g clip-path="url(#817ddcb9fe)"><g clip-path="url(#23df0f84e0)"><path fill="#0097b2" d="M 0 0.351562 L 14.519531 0.351562 L 14.519531 25.25 L 0 25.25 Z M 0 0.351562 " fill-opacity="1" fill-rule="nonzero"/></g></g></g></g><g clip-path="url(#136487cd58)"><path fill="#0097b2" d="M 156.539062 35.632812 C 156.539062 21.960938 167.621094 10.882812 181.289062 10.882812 C 194.957031 10.882812 206.039062 21.960938 206.039062 35.632812 C 206.039062 49.300781 194.957031 60.382812 181.289062 60.382812 C 167.621094 60.382812 156.539062 49.300781 156.539062 35.632812 Z M 181.289062 45.945312 C 186.984375 45.945312 191.601562 41.328125 191.601562 35.632812 C 191.601562 29.9375 186.984375 25.320312 181.289062 25.320312 C 175.59375 25.320312 170.976562 29.9375 170.976562 35.632812 C 170.976562 41.328125 175.59375 45.945312 181.289062 45.945312 Z M 156.539062 84.101562 L 156.539062 67.601562 L 206.039062 67.601562 L 206.039062 84.101562 Z M 200.160156 9.027344 C 200.160156 4.46875 203.855469 0.777344 208.410156 0.777344 C 212.96875 0.777344 216.660156 4.46875 216.660156 9.027344 C 216.660156 13.582031 212.96875 17.277344 208.410156 17.277344 C 203.855469 17.277344 200.160156 13.582031 200.160156 9.027344 Z M 200.160156 9.027344 " fill-opacity="1" fill-rule="evenodd"/></g><g clip-path="url(#8fb078a2de)"><g clip-path="url(#96cc0baf55)"><g transform="matrix(1, 0, 0, 1, 156, 61)"><g clip-path="url(#f4025289a8)"><g clip-path="url(#d796200e1a)"><g clip-path="url(#9f75a1d328)"><path fill="#cb3421" d="M 49.519531 25.21875 L 0.0585938 25.21875 L 0.0585938 0.488281 L 49.519531 0.488281 Z M 49.519531 25.21875 " fill-opacity="1" fill-rule="nonzero"/></g></g></g></g></g></g><path fill="#0097b2" d="M 181.679688 90.148438 C 187.03125 90.148438 191.371094 94.488281 191.371094 99.839844 L 191.371094 148.292969 L 171.992188 148.292969 L 171.992188 99.839844 C 171.992188 94.488281 176.328125 90.148438 181.679688 90.148438 Z M 181.679688 107.761719 C 185.695312 107.761719 188.949219 104.507812 188.949219 100.496094 C 188.949219 96.480469 185.695312 93.226562 181.679688 93.226562 C 177.667969 93.226562 174.414062 96.480469 174.414062 100.496094 C 174.414062 104.507812 177.667969 107.761719 181.679688 107.761719 Z M 181.679688 107.761719 " fill-opacity="1" fill-rule="evenodd"/><path fill="#0097b2" d="M 176.835938 100.496094 C 176.835938 97.820312 179.003906 95.652344 181.679688 95.652344 C 184.355469 95.652344 186.527344 97.820312 186.527344 100.496094 C 186.527344 103.171875 184.355469 105.339844 181.679688 105.339844 C 179.003906 105.339844 176.835938 103.171875 176.835938 100.496094 Z M 176.835938 100.496094 " fill-opacity="1" fill-rule="evenodd"/><g transform="matrix(1, 0, 0, 1, 202, 89)"><g clip-path="url(#1a68cca5d4)"><g clip-path="url(#de1094b1b9)"><path fill="#0097b2" d="M 0.3125 30.226562 C 0.3125 46.289062 13.332031 59.308594 29.394531 59.308594 C 45.457031 59.308594 58.476562 46.289062 58.476562 30.226562 L 58.476562 1.144531 L 43.9375 1.144531 L 43.9375 5.035156 C 39.660156 2.5625 34.691406 1.144531 29.394531 1.144531 C 13.332031 1.144531 0.3125 14.164062 0.3125 30.226562 Z M 29.394531 18.109375 C 36.089844 18.109375 41.511719 23.535156 41.511719 30.226562 C 41.511719 36.917969 36.089844 42.34375 29.394531 42.34375 C 22.703125 42.34375 17.277344 36.917969 17.277344 30.226562 C 17.277344 23.535156 22.703125 18.109375 29.394531 18.109375 Z M 29.394531 18.109375 " fill-opacity="1" fill-rule="evenodd"/></g></g></g><g clip-path="url(#f34c666d8d)"><g transform="matrix(1, 0, 0, 1, 246, 78)"><g clip-path="url(#bd368f87c0)"><g clip-path="url(#5e080f1345)"><path fill="#0097b2" d="M 0.335938 0.433594 L 15.074219 0.433594 L 15.074219 37.34375 L 0.335938 37.34375 Z M 0.335938 0.433594 " fill-opacity="1" fill-rule="nonzero"/></g></g></g></g><path fill="#0097b2" d="M 140.996094 90.144531 C 150.472656 90.144531 158.890625 94.675781 164.203125 101.691406 L 149.230469 110.335938 C 147.070312 108.332031 144.175781 107.109375 140.996094 107.109375 C 134.304688 107.109375 128.878906 112.535156 128.878906 119.226562 L 111.914062 119.226562 C 111.914062 103.164062 124.933594 90.144531 140.996094 90.144531 Z M 140.996094 90.144531 " fill-opacity="1" fill-rule="evenodd"/><g clip-path="url(#e2018fad65)"><g transform="matrix(1, 0, 0, 1, 111, 115)"><g clip-path="url(#042278975b)"><g clip-path="url(#b0a88afda8)"><path fill="#0097b2" d="M 0.777344 0.351562 L 17.839844 0.351562 L 17.839844 33.34375 L 0.777344 33.34375 Z M 0.777344 0.351562 " fill-opacity="1" fill-rule="nonzero"/></g></g></g></g><g clip-path="url(#38f8ea9984)"><path fill="#0097b2" d="M 44.1875 119.363281 C 44.1875 103.304688 57.207031 90.285156 73.265625 90.285156 C 89.328125 90.285156 102.34375 103.304688 102.34375 119.363281 C 102.34375 135.421875 89.328125 148.441406 73.265625 148.441406 C 57.207031 148.441406 44.1875 135.421875 44.1875 119.363281 Z M 73.265625 131.480469 C 79.957031 131.480469 85.382812 126.054688 85.382812 119.363281 C 85.382812 112.671875 79.957031 107.246094 73.265625 107.246094 C 66.574219 107.246094 61.152344 112.671875 61.152344 119.363281 C 61.152344 126.054688 66.574219 131.480469 73.265625 131.480469 Z M 44.1875 176.308594 L 44.1875 156.921875 L 102.34375 156.921875 L 102.34375 176.308594 Z M 95.4375 88.105469 C 95.4375 82.75 99.777344 78.410156 105.132812 78.410156 C 110.484375 78.410156 114.824219 82.75 114.824219 88.105469 C 114.824219 93.457031 110.484375 97.796875 105.132812 97.796875 C 99.777344 97.796875 95.4375 93.457031 95.4375 88.105469 Z M 95.4375 88.105469 " fill-opacity="1" fill-rule="evenodd"/></g><g clip-path="url(#58b9b0f1e7)"><g clip-path="url(#2e5f9dacac)"><g transform="matrix(1, 0, 0, 1, 43, 149)"><g clip-path="url(#11f5ba9337)"><g clip-path="url(#13b940d6fb)"><g clip-path="url(#473a6beeb0)"><path fill="#cb3421" d="M 58.75 29.8125 L 0.632812 29.8125 L 0.632812 0.753906 L 58.75 0.753906 Z M 58.75 29.8125 " fill-opacity="1" fill-rule="nonzero"/></g></g></g></g></g></g></g></g></svg>